M48
; DRILL file {KiCad 9.0.0} date 2025-07-05T14:51:02+0200
; FORMAT={-:-/ absolute / metric / decimal}
; #@! TF.CreationDate,2025-07-05T14:51:02+02:00
; #@! TF.GenerationSoftware,Kicad,Pcbnew,9.0.0
; #@! TF.FileFunction,Plated,1,2,PTH
FMAT,2
METRIC
; #@! TA.AperFunction,Plated,PTH,ViaDrill
T1C0.300
; #@! TA.AperFunction,Plated,PTH,ComponentDrill
T2C0.840
; #@! TA.AperFunction,Plated,PTH,ComponentDrill
T3C1.000
; #@! TA.AperFunction,Plated,PTH,ComponentDrill
T4C1.295
; #@! TA.AperFunction,Plated,PTH,ComponentDrill
T5C3.200
%
G90
G05
T1
X136.15Y-90.0
X136.2Y-84.8
T2
X122.14Y-78.49
X122.14Y-81.03
X122.14Y-83.57
X122.14Y-86.11
X122.14Y-88.65
X122.14Y-91.19
X122.14Y-93.73
X122.14Y-96.27
X137.38Y-78.49
X137.38Y-81.03
X137.38Y-83.57
X137.38Y-86.11
X137.38Y-88.65
X137.38Y-91.19
X137.38Y-93.73
X137.38Y-96.27
T3
X115.61Y-81.73
X115.61Y-84.27
X115.61Y-86.81
X115.61Y-89.35
X115.61Y-91.89
X118.15Y-81.73
X118.15Y-84.27
X118.15Y-86.81
X118.15Y-89.35
X118.15Y-91.89
X153.75Y-83.3
X153.75Y-85.84
X153.75Y-88.38
X153.75Y-90.92
T4
X140.932Y-77.955
X140.932Y-95.735
X148.552Y-77.955
X148.552Y-85.575
X148.552Y-95.735
T5
X116.85Y-76.7
X116.85Y-97.0
X153.85Y-76.7
X153.85Y-97.0
M30
